<svg width="300" height="442" viewBox="0 0 300 442" fill="none" xmlns="http://www.w3.org/2000/svg">
<path fill-rule="evenodd" clip-rule="evenodd" d="M20 0C8.95428 0 0 8.9543 0 20V422C0 433.046 8.95428 442 20 442H280C291.046 442 300 433.046 300 422V20C300 8.9543 291.046 0 280 0H20ZM44 32C32.9543 32 24 40.9543 24 52V112C24 123.046 32.9543 132 44 132H256C267.046 132 276 123.046 276 112V52C276 40.9543 267.046 32 256 32H44Z" fill="#BECDE5"/>
<rect x="221" y="153" width="55" height="55" rx="20" fill="#DFE6F2"/>
<rect x="221" y="223" width="55" height="55" rx="20" fill="#DFE6F2"/>
<rect x="221" y="293" width="55" height="55" rx="20" fill="#DFE6F2"/>
<rect x="221" y="363" width="55" height="55" rx="20" fill="#DFE6F2"/>
<rect x="89" y="153" width="55" height="55" rx="20" fill="white"/>
<rect x="154" y="153" width="55" height="55" rx="20" fill="white"/>
<rect x="24" y="223" width="55" height="55" rx="20" fill="white"/>
<rect x="89" y="293" width="55" height="55" rx="20" fill="white"/>
<rect x="154" y="293" width="55" height="55" rx="20" fill="white"/>
<rect x="24" y="363" width="55" height="55" rx="20" fill="white"/>
<rect x="89" y="223" width="55" height="55" rx="20" fill="white"/>
<rect x="154" y="223" width="55" height="55" rx="20" fill="white"/>
<rect x="24" y="293" width="55" height="55" rx="20" fill="white"/>
<path d="M110.871 331L120.63 311.696V311.526H109.38V309.182H123.357V311.653L113.641 331H110.871Z" fill="#474747"/>
<path d="M244.576 244.636L248.496 251.327L252.416 244.636H255.314L250.03 252.818L255.314 261H252.416L248.496 254.651L244.576 261H241.678L246.877 252.818L241.678 244.636H244.576Z" fill="#474747"/>
<path d="M253.277 320.474V322.818H243.731V320.474H253.277Z" fill="#474747"/>
<path d="M247.305 399.509V385.446H249.692V399.509H247.305ZM241.467 393.67V391.284H255.53V393.67H241.467Z" fill="#474747"/>
<path d="M255.317 181.284V183.67H241.68V181.284H255.317ZM248.499 189.892C247.966 189.892 247.511 189.707 247.135 189.338C246.766 188.962 246.581 188.507 246.581 187.974C246.581 187.463 246.766 187.023 247.135 186.653C247.511 186.284 247.966 186.099 248.499 186.099C249.01 186.099 249.45 186.284 249.82 186.653C250.189 187.023 250.374 187.463 250.374 187.974C250.374 188.507 250.189 188.962 249.82 189.338C249.45 189.707 249.01 189.892 248.499 189.892ZM248.499 178.855C248.144 178.855 247.82 178.77 247.529 178.599C247.238 178.429 247.007 178.198 246.837 177.907C246.666 177.616 246.581 177.293 246.581 176.938C246.581 176.426 246.766 175.986 247.135 175.616C247.511 175.247 247.966 175.062 248.499 175.062C249.01 175.062 249.45 175.247 249.82 175.616C250.189 175.986 250.374 176.426 250.374 176.938C250.374 177.47 250.189 177.925 249.82 178.301C249.45 178.67 249.01 178.855 248.499 178.855Z" fill="#474747"/>
<rect x="24" y="153" width="55" height="55" rx="20" fill="white"/>
<path d="M51.5 191.298C49.8949 191.298 48.5277 190.862 47.3984 189.988C46.2692 189.107 45.4063 187.832 44.8097 186.163C44.2131 184.487 43.9148 182.463 43.9148 180.091C43.9148 177.733 44.2131 175.719 44.8097 174.05C45.4134 172.374 46.2798 171.096 47.4091 170.215C48.5455 169.327 49.9091 168.884 51.5 168.884C53.0909 168.884 54.451 169.327 55.5803 170.215C56.7166 171.096 57.5831 172.374 58.1797 174.05C58.7834 175.719 59.0852 177.733 59.0852 180.091C59.0852 182.463 58.7869 184.487 58.1903 186.163C57.5938 187.832 56.7308 189.107 55.6016 189.988C54.4723 190.862 53.1051 191.298 51.5 191.298ZM51.5 188.955C53.0909 188.955 54.3267 188.187 55.2074 186.653C56.0881 185.119 56.5284 182.932 56.5284 180.091C56.5284 178.202 56.326 176.593 55.9212 175.265C55.5234 173.937 54.9482 172.925 54.1953 172.229C53.4496 171.533 52.5511 171.185 51.5 171.185C49.9233 171.185 48.6911 171.962 47.8033 173.518C46.9155 175.066 46.4716 177.257 46.4716 180.091C46.4716 181.98 46.6705 183.585 47.0682 184.906C47.4659 186.227 48.0376 187.232 48.7834 187.921C49.5362 188.61 50.4418 188.955 51.5 188.955Z" fill="#474747"/>
<path d="M181.504 331.298C180.041 331.298 178.748 331.039 177.626 330.521C176.511 329.995 175.641 329.274 175.016 328.358C174.391 327.435 174.082 326.384 174.089 325.205C174.082 324.281 174.263 323.429 174.633 322.648C175.002 321.859 175.506 321.202 176.145 320.677C176.792 320.144 177.513 319.807 178.308 319.665V319.537C177.264 319.267 176.433 318.681 175.815 317.779C175.197 316.87 174.892 315.837 174.899 314.679C174.892 313.571 175.172 312.58 175.741 311.707C176.309 310.833 177.09 310.144 178.084 309.64C179.086 309.136 180.226 308.884 181.504 308.884C182.768 308.884 183.897 309.136 184.892 309.64C185.886 310.144 186.667 310.833 187.236 311.707C187.811 312.58 188.102 313.571 188.109 314.679C188.102 315.837 187.786 316.87 187.161 317.779C186.543 318.681 185.723 319.267 184.7 319.537V319.665C185.488 319.807 186.199 320.144 186.831 320.677C187.463 321.202 187.967 321.859 188.343 322.648C188.72 323.429 188.912 324.281 188.919 325.205C188.912 326.384 188.592 327.435 187.96 328.358C187.335 329.274 186.465 329.995 185.35 330.521C184.242 331.039 182.96 331.298 181.504 331.298ZM181.504 328.955C182.491 328.955 183.343 328.795 184.061 328.475C184.778 328.156 185.332 327.705 185.723 327.122C186.113 326.54 186.312 325.858 186.319 325.077C186.312 324.253 186.099 323.525 185.68 322.893C185.261 322.261 184.689 321.763 183.965 321.401C183.248 321.039 182.427 320.858 181.504 320.858C180.574 320.858 179.743 321.039 179.011 321.401C178.287 321.763 177.715 322.261 177.296 322.893C176.884 323.525 176.682 324.253 176.689 325.077C176.682 325.858 176.87 326.54 177.253 327.122C177.644 327.705 178.201 328.156 178.926 328.475C179.65 328.795 180.51 328.955 181.504 328.955ZM181.504 318.599C182.285 318.599 182.978 318.443 183.581 318.131C184.192 317.818 184.672 317.381 185.02 316.82C185.368 316.259 185.545 315.602 185.552 314.849C185.545 314.111 185.371 313.468 185.03 312.921C184.689 312.367 184.217 311.941 183.613 311.643C183.01 311.337 182.307 311.185 181.504 311.185C180.687 311.185 179.973 311.337 179.363 311.643C178.752 311.941 178.28 312.367 177.946 312.921C177.612 313.468 177.449 314.111 177.456 314.849C177.449 315.602 177.616 316.259 177.956 316.82C178.304 317.381 178.784 317.818 179.395 318.131C180.005 318.443 180.709 318.599 181.504 318.599Z" fill="#474747"/>
<path d="M51.3442 378.884C52.2391 378.891 53.134 379.061 54.0289 379.395C54.9237 379.729 55.7405 380.283 56.4791 381.057C57.2178 381.824 57.8108 382.871 58.2583 384.2C58.7057 385.528 58.9294 387.193 58.9294 389.196C58.9294 391.135 58.7448 392.857 58.3754 394.363C58.0132 395.862 57.4877 397.126 56.7987 398.156C56.1169 399.185 55.286 399.967 54.3058 400.499C53.3328 401.032 52.232 401.298 51.0033 401.298C49.7817 401.298 48.6915 401.057 47.7327 400.574C46.781 400.084 45.9997 399.406 45.3889 398.539C44.7852 397.665 44.3982 396.653 44.2277 395.503H46.8271C47.0615 396.504 47.5267 397.332 48.2227 397.985C48.9259 398.631 49.8527 398.955 51.0033 398.955C52.6865 398.955 54.0146 398.219 54.9877 396.749C55.9678 395.279 56.4578 393.202 56.4578 390.517H56.2874C55.8896 391.114 55.4173 391.629 54.8705 392.062C54.3236 392.495 53.7164 392.829 53.0487 393.063C52.3811 393.298 51.6709 393.415 50.9181 393.415C49.6681 393.415 48.521 393.106 47.477 392.488C46.4401 391.863 45.6091 391.007 44.9841 389.92C44.3662 388.827 44.0573 387.577 44.0573 386.17C44.0573 384.835 44.3556 383.614 44.9521 382.506C45.5558 381.391 46.401 380.503 47.4877 379.842C48.5814 379.182 49.8669 378.862 51.3442 378.884ZM51.3442 381.227C50.4493 381.227 49.6432 381.451 48.9259 381.898C48.2156 382.339 47.651 382.935 47.232 383.688C46.82 384.434 46.6141 385.261 46.6141 386.17C46.6141 387.08 46.8129 387.907 47.2107 388.653C47.6155 389.391 48.1659 389.981 48.8619 390.421C49.5651 390.854 50.3641 391.071 51.259 391.071C51.9337 391.071 52.5622 390.94 53.1446 390.677C53.727 390.407 54.2348 390.041 54.6681 389.58C55.1084 389.111 55.4529 388.582 55.7014 387.992C55.95 387.396 56.0743 386.774 56.0743 386.128C56.0743 385.276 55.8683 384.477 55.4564 383.731C55.0516 382.985 54.4905 382.381 53.7732 381.92C53.0629 381.458 52.2533 381.227 51.3442 381.227Z" fill="#474747"/>
<path d="M119.456 169.182V191H116.814V171.952H116.686L111.36 175.489V172.804L116.814 169.182H119.456Z" fill="#474747"/>
<path d="M174.676 191V189.082L181.878 181.199C182.723 180.276 183.419 179.473 183.966 178.791C184.513 178.102 184.918 177.456 185.181 176.852C185.451 176.241 185.586 175.602 185.586 174.935C185.586 174.168 185.401 173.504 185.032 172.942C184.669 172.381 184.172 171.948 183.54 171.643C182.908 171.337 182.198 171.185 181.409 171.185C180.571 171.185 179.84 171.359 179.215 171.707C178.597 172.048 178.118 172.527 177.777 173.145C177.443 173.763 177.276 174.487 177.276 175.318H174.762C174.762 174.04 175.056 172.918 175.646 171.952C176.235 170.986 177.038 170.233 178.054 169.693C179.076 169.153 180.223 168.884 181.495 168.884C182.773 168.884 183.906 169.153 184.893 169.693C185.88 170.233 186.654 170.961 187.216 171.877C187.777 172.793 188.057 173.812 188.057 174.935C188.057 175.737 187.912 176.522 187.62 177.289C187.336 178.049 186.839 178.898 186.129 179.835C185.426 180.766 184.449 181.902 183.199 183.244L178.299 188.486V188.656H188.441V191H174.676Z" fill="#474747"/>
<path d="M51.5799 261.298C50.1737 261.298 48.9201 261.057 47.8192 260.574C46.7255 260.091 45.8555 259.42 45.2092 258.56C44.57 257.694 44.2219 256.689 44.1651 255.545H46.8498C46.9066 256.249 47.1481 256.856 47.5742 257.367C48.0004 257.871 48.5579 258.262 49.2468 258.539C49.9357 258.816 50.6992 258.955 51.5373 258.955C52.4748 258.955 53.3058 258.791 54.0302 258.464C54.7546 258.138 55.3228 257.683 55.7347 257.101C56.1467 256.518 56.3526 255.844 56.3526 255.077C56.3526 254.274 56.1538 253.567 55.756 252.957C55.3583 252.339 54.7759 251.856 54.0089 251.508C53.2418 251.16 52.3043 250.986 51.1964 250.986H49.4492V248.642H51.1964C52.0629 248.642 52.8228 248.486 53.4762 248.173C54.1367 247.861 54.6516 247.42 55.021 246.852C55.3974 246.284 55.5856 245.616 55.5856 244.849C55.5856 244.111 55.4222 243.468 55.0955 242.921C54.7688 242.374 54.3072 241.948 53.7106 241.643C53.1211 241.337 52.4251 241.185 51.6225 241.185C50.8697 241.185 50.1594 241.323 49.4918 241.6C48.8313 241.87 48.2915 242.264 47.8725 242.783C47.4535 243.294 47.2262 243.912 47.1907 244.636H44.6339C44.6765 243.493 45.021 242.491 45.6673 241.632C46.3136 240.766 47.1587 240.091 48.2028 239.608C49.2539 239.125 50.408 238.884 51.6651 238.884C53.0146 238.884 54.1722 239.157 55.1381 239.704C56.104 240.244 56.8462 240.957 57.3647 241.845C57.8832 242.733 58.1424 243.692 58.1424 244.722C58.1424 245.95 57.8192 246.998 57.1729 247.864C56.5337 248.731 55.6637 249.331 54.5629 249.665V249.835C55.9407 250.062 57.0167 250.648 57.7908 251.593C58.565 252.531 58.9521 253.692 58.9521 255.077C58.9521 256.263 58.6289 257.328 57.9826 258.273C57.3434 259.21 56.4698 259.949 55.3619 260.489C54.2539 261.028 52.9933 261.298 51.5799 261.298Z" fill="#474747"/>
<path d="M108.623 256.526V254.352L118.211 239.182H119.788V242.548H118.723L111.478 254.011V254.182H124.39V256.526H108.623ZM118.893 261V255.865V254.853V239.182H121.407V261H118.893Z" fill="#474747"/>
<path d="M181.451 261.298C180.201 261.298 179.075 261.05 178.074 260.553C177.072 260.055 176.27 259.374 175.666 258.507C175.062 257.641 174.732 256.653 174.675 255.545H177.232C177.331 256.533 177.779 257.349 178.574 257.996C179.377 258.635 180.336 258.955 181.451 258.955C182.346 258.955 183.141 258.745 183.837 258.326C184.54 257.907 185.091 257.332 185.488 256.6C185.893 255.862 186.096 255.027 186.096 254.097C186.096 253.145 185.886 252.296 185.467 251.55C185.055 250.798 184.487 250.205 183.763 249.771C183.038 249.338 182.211 249.118 181.28 249.111C180.613 249.104 179.927 249.207 179.224 249.42C178.521 249.626 177.942 249.892 177.488 250.219L175.016 249.92L176.337 239.182H187.672V241.526H178.553L177.786 247.96H177.914C178.361 247.605 178.922 247.31 179.597 247.076C180.272 246.842 180.975 246.724 181.706 246.724C183.042 246.724 184.231 247.044 185.275 247.683C186.326 248.315 187.15 249.182 187.747 250.283C188.351 251.384 188.652 252.641 188.652 254.054C188.652 255.446 188.34 256.689 187.715 257.783C187.097 258.869 186.245 259.729 185.158 260.361C184.071 260.986 182.836 261.298 181.451 261.298Z" fill="#474747"/>
<path d="M51.6425 331.298C50.7476 331.284 49.8527 331.114 48.9578 330.787C48.0629 330.46 47.2462 329.91 46.5075 329.136C45.7689 328.354 45.1759 327.3 44.7284 325.972C44.281 324.636 44.0573 322.96 44.0573 320.943C44.0573 319.011 44.2384 317.3 44.6006 315.808C44.9628 314.31 45.4884 313.049 46.1773 312.026C46.8662 310.996 47.6972 310.215 48.6702 309.683C49.6503 309.15 50.7547 308.884 51.9834 308.884C53.205 308.884 54.2916 309.129 55.2433 309.619C56.2021 310.102 56.9834 310.776 57.5871 311.643C58.1908 312.509 58.5814 313.507 58.759 314.636H56.1595C55.9181 313.656 55.4493 312.843 54.7533 312.197C54.0573 311.55 53.134 311.227 51.9834 311.227C50.2931 311.227 48.9614 311.962 47.9884 313.433C47.0225 314.903 46.536 316.966 46.5289 319.622H46.6993C47.097 319.018 47.5693 318.504 48.1162 318.077C48.6702 317.644 49.281 317.31 49.9486 317.076C50.6162 316.842 51.3229 316.724 52.0686 316.724C53.3186 316.724 54.4621 317.037 55.499 317.662C56.536 318.28 57.3669 319.136 57.9919 320.229C58.6169 321.316 58.9294 322.562 58.9294 323.969C58.9294 325.318 58.6276 326.554 58.0239 327.676C57.4202 328.791 56.5715 329.679 55.4777 330.339C54.3911 330.993 53.1127 331.312 51.6425 331.298ZM51.6425 328.955C52.5374 328.955 53.3399 328.731 54.0502 328.283C54.7675 327.836 55.3321 327.236 55.7441 326.483C56.1631 325.73 56.3726 324.892 56.3726 323.969C56.3726 323.067 56.1702 322.246 55.7654 321.508C55.3676 320.762 54.8172 320.169 54.1141 319.729C53.4181 319.288 52.6226 319.068 51.7277 319.068C51.053 319.068 50.4244 319.203 49.8421 319.473C49.2597 319.736 48.7483 320.098 48.308 320.56C47.8747 321.021 47.5338 321.55 47.2852 322.147C47.0367 322.737 46.9124 323.358 46.9124 324.011C46.9124 324.878 47.1148 325.687 47.5196 326.44C47.9316 327.193 48.4926 327.8 49.2029 328.262C49.9202 328.724 50.7334 328.955 51.6425 328.955Z" fill="#474747"/>
</svg>
